<svg width="24" height="24" viewBox="0 0 24 24" fill="none" xmlns="http://www.w3.org/2000/svg">
<rect width="24" height="24" rx="12" fill="black"/>
<path fill-rule="evenodd" clip-rule="evenodd" d="M19.3081 12.4659C19.3081 11.9483 19.2616 11.4506 19.1753 10.9727H12.3V13.7965H16.2288C16.0596 14.709 15.5452 15.4822 14.7721 15.9998V17.8314H17.1313C18.5117 16.5606 19.3081 14.6891 19.3081 12.4659Z" fill="white"/>
<path fill-rule="evenodd" clip-rule="evenodd" d="M12.3 19.6C14.271 19.6 15.9235 18.9463 17.1313 17.8314L14.7721 15.9998C14.1184 16.4378 13.2822 16.6966 12.3 16.6966C10.3987 16.6966 8.7894 15.4125 8.21535 13.687H5.77649V15.5784C6.97767 17.9641 9.4464 19.6 12.3 19.6Z" fill="white"/>
<path fill-rule="evenodd" clip-rule="evenodd" d="M8.21532 13.687C8.06932 13.249 7.98636 12.7811 7.98636 12.3C7.98636 11.8189 8.06932 11.351 8.21532 10.913V9.02164H5.77645C5.28205 10.0071 5 11.122 5 12.3C5 13.478 5.28205 14.5929 5.77645 15.5784L8.21532 13.687Z" fill="white"/>
<path fill-rule="evenodd" clip-rule="evenodd" d="M12.3 7.90341C13.3718 7.90341 14.3341 8.27173 15.0906 8.99509L17.1844 6.90132C15.9202 5.72336 14.2677 5 12.3 5C9.4464 5 6.97767 6.63586 5.77649 9.02164L8.21535 10.913C8.7894 9.18755 10.3987 7.90341 12.3 7.90341Z" fill="white"/>
</svg>
