<svg width="24" height="24" viewBox="0 0 24 24" fill="none" xmlns="http://www.w3.org/2000/svg">
<rect width="24" height="24" rx="12" fill="#A27B5C"/>
<path fill-rule="evenodd" clip-rule="evenodd" d="M19.3081 12.4659C19.3081 11.9483 19.2616 11.4506 19.1753 10.9727H12.3V13.7965H16.2288C16.0596 14.709 15.5452 15.4821 14.7721 15.9998V17.8314H17.1313C18.5117 16.5606 19.3081 14.6891 19.3081 12.4659Z" fill="#DCD7C9"/>
<path fill-rule="evenodd" clip-rule="evenodd" d="M12.3001 19.6C14.2711 19.6 15.9236 18.9463 17.1314 17.8314L14.7721 15.9998C14.1185 16.4378 13.2823 16.6966 12.3001 16.6966C10.3988 16.6966 8.78946 15.4125 8.21541 13.687H5.77655V15.5784C6.97773 17.9641 9.44646 19.6 12.3001 19.6Z" fill="#DCD7C9"/>
<path fill-rule="evenodd" clip-rule="evenodd" d="M8.21532 13.687C8.06932 13.249 7.98636 12.7811 7.98636 12.3C7.98636 11.8189 8.06932 11.351 8.21532 10.913V9.02164H5.77645C5.28205 10.0071 5 11.1221 5 12.3C5 13.478 5.28205 14.5929 5.77645 15.5784L8.21532 13.687Z" fill="#DCD7C9"/>
<path fill-rule="evenodd" clip-rule="evenodd" d="M12.3001 7.90341C13.3719 7.90341 14.3341 8.27173 15.0907 8.99509L17.1845 6.90132C15.9202 5.72336 14.2678 5 12.3001 5C9.44646 5 6.97773 6.63586 5.77655 9.02164L8.21541 10.913C8.78946 9.18755 10.3988 7.90341 12.3001 7.90341Z" fill="#DCD7C9"/>
</svg>
