<svg width="128" height="128" viewBox="0 0 128 128" fill="none" xmlns="http://www.w3.org/2000/svg">
<path d="M47.961 79.02L48.154 79.114L48.498 79.28C48.937 79.489 49.38 79.696 49.827 79.895L50.108 80.02C50.621 80.245 51.137 80.459 51.659 80.665L52.037 80.813C52.519 81.001 53.009 81.183 53.5 81.356L53.684 81.419C54.223 81.607 54.767 81.782 55.316 81.953L55.711 82.07C56.269 82.239 56.82 82.44 57.396 82.547C93.95 89.212 104.567 60.58 104.567 60.58C95.649 72.198 79.82 75.263 64.822 71.851C64.254 71.723 63.702 71.545 63.148 71.381L62.731 71.255C62.1908 71.0892 61.6534 70.9145 61.119 70.731L60.898 70.651C60.4218 70.4824 59.948 70.3067 59.477 70.124L59.079 69.968C58.5636 69.7652 58.0522 69.5525 57.545 69.33L57.238 69.194C56.8043 68.9984 56.373 68.7977 55.944 68.592L55.569 68.412C55.233 68.248 54.9 68.073 54.568 67.902L53.9 67.552C53.4963 67.3349 53.0966 67.1106 52.701 66.879L52.296 66.653C51.7701 66.3418 51.249 66.0225 50.733 65.695L50.312 65.415C49.9374 65.1747 49.5667 64.9283 49.2 64.676L48.842 64.424C48.488 64.174 48.138 63.921 47.791 63.664L47.325 63.311C47.0059 63.0684 46.6899 62.8217 46.377 62.571L45.954 62.231C45.5559 61.9043 45.1619 61.5726 44.772 61.236L44.643 61.127C44.222 60.7584 43.8073 60.3827 43.399 60L43.049 59.663C42.746 59.376 42.449 59.086 42.156 58.789L41.806 58.439C41.4348 58.0589 41.0698 57.6728 40.711 57.281L40.657 57.223C40.2787 56.8088 39.9083 56.3874 39.546 55.959L39.255 55.613C38.985 55.288 38.717 54.958 38.456 54.625L38.163 54.261C37.8494 53.8558 37.5417 53.4461 37.24 53.032C28.914 41.674 25.922 26.009 32.577 13.144L26.678 20.626C19.119 31.489 20.061 45.623 25.834 57.167L26.257 57.988L26.528 58.508L26.696 58.807L26.997 59.346C27.176 59.662 27.359 59.976 27.547 60.29L27.862 60.809C28.07 61.145 28.283 61.477 28.502 61.809L28.774 62.231C29.075 62.679 29.383 63.127 29.7 63.567L29.727 63.602L29.883 63.813C30.158 64.192 30.441 64.566 30.727 64.936L31.045 65.34C31.3 65.661 31.561 65.981 31.825 66.299L32.123 66.654C32.478 67.073 32.84 67.489 33.21 67.896L33.232 67.919L33.274 67.965C33.634 68.359 34.004 68.743 34.378 69.129L34.732 69.486C35.022 69.778 35.316 70.065 35.614 70.351L35.975 70.694C36.372 71.068 36.773 71.435 37.183 71.795L37.203 71.81L37.413 71.99C37.774 72.302 38.142 72.613 38.512 72.918L38.967 73.28C39.269 73.522 39.575 73.761 39.883 73.996L40.372 74.368C40.712 74.618 41.054 74.864 41.399 75.105L41.774 75.371L41.877 75.444C42.205 75.67 42.54 75.886 42.875 76.103L43.307 76.391C43.82 76.716 44.342 77.037 44.869 77.347L45.301 77.591C45.689 77.814 46.078 78.033 46.473 78.247L47.121 78.583L47.961 79.02V79.02ZM51.654 42.225C52.473 43.399 53.38 44.795 54.467 45.739C54.861 46.173 55.273 46.595 55.693 47.012L56.017 47.33C56.426 47.726 56.841 48.115 57.269 48.494L57.321 48.538L57.333 48.551C57.808 48.967 58.298 49.367 58.796 49.761L59.129 50.021C59.629 50.404 60.138 50.78 60.66 51.139L60.705 51.172L61.403 51.632L61.735 51.852C62.108 52.09 62.485 52.324 62.87 52.546L63.03 52.639C63.361 52.83 63.697 53.018 64.033 53.2L64.389 53.387L65.091 53.75L65.197 53.798C65.679 54.035 66.165 54.263 66.661 54.48L66.984 54.613C67.38 54.781 67.781 54.946 68.183 55.1L68.697 55.288C69.063 55.424 69.429 55.548 69.799 55.671L70.298 55.831C70.824 55.994 71.343 56.2 71.891 56.291C100.113 60.968 106.629 39.237 106.629 39.237C100.755 47.696 89.381 51.731 77.243 48.581C76.7066 48.4402 76.1738 48.2861 75.645 48.119L75.164 47.964C74.789 47.843 74.416 47.714 74.046 47.579L73.542 47.391C73.1381 47.2359 72.7367 47.0742 72.338 46.906L72.014 46.768C71.5177 46.552 71.0269 46.3236 70.542 46.083L69.803 45.707L69.377 45.488C69.063 45.318 68.751 45.14 68.443 44.961L68.22 44.834C67.8385 44.6113 67.4611 44.3816 67.088 44.145L66.747 43.916L66.015 43.432C65.4975 43.073 64.989 42.7013 64.49 42.317L64.147 42.046C58.834 37.853 54.623 32.119 52.62 25.618C50.522 18.878 50.974 11.31 54.609 5.16901L50.143 11.475C44.677 19.34 44.974 29.871 49.238 38.19C49.9512 39.5881 50.7584 40.9362 51.654 42.225V42.225ZM81.401 32.494L82.102 32.737L82.411 32.835C82.744 32.939 83.073 33.061 83.416 33.125C98.999 36.136 103.227 25.128 104.352 23.508C100.649 28.839 94.427 30.118 86.792 28.265C86.1669 28.1059 85.5501 27.9157 84.944 27.695C84.1978 27.4298 83.4658 27.126 82.751 26.785C81.3943 26.1323 80.1059 25.3461 78.905 24.438C72.073 19.253 67.829 9.36601 72.287 1.31201L69.875 4.63601C66.653 9.37901 66.336 15.269 68.572 20.505C70.93 26.065 75.762 30.425 81.401 32.494V32.494ZM66.359 96.295H62.133C62.0134 96.2996 61.8985 96.3427 61.8054 96.4178C61.7123 96.493 61.6458 96.5961 61.616 96.712L60.116 103.652L58.616 110.592C58.5865 110.708 58.5203 110.811 58.4273 110.886C58.3343 110.961 58.2195 111.005 58.1 111.009H55.109C52.15 111.009 52.492 108.962 53.098 106.158L53.116 106.073L53.182 105.719L53.194 105.653L53.329 104.933L53.474 104.162L53.628 103.377L54.31 100.045L54.993 96.713C55.006 96.6621 55.007 96.6089 54.9957 96.5576C54.9844 96.5063 54.9613 96.4583 54.9281 96.4176C54.895 96.3768 54.8527 96.3444 54.8047 96.323C54.7568 96.3015 54.7045 96.2916 54.652 96.294H50.315C50.1955 96.2984 50.0808 96.3415 49.988 96.4169C49.8953 96.4924 49.8296 96.5959 49.801 96.712L48.868 101.136L47.936 105.561L47.934 105.567L47.848 105.979C46.774 110.882 47.058 115.559 52.896 115.706L53.066 115.709H62.229C62.3485 115.705 62.4633 115.661 62.5563 115.586C62.6493 115.511 62.7155 115.408 62.745 115.292L64.721 106.003L66.697 96.713C66.746 96.483 66.594 96.296 66.359 96.295V96.295ZM21.103 96.246H16.463C16.3431 96.2507 16.2279 96.2936 16.1342 96.3684C16.0404 96.4433 15.9731 96.5462 15.942 96.662L15.502 98.604L15.062 100.546C15.011 100.775 15.16 100.962 15.395 100.962H20.071C20.1908 100.958 20.3059 100.915 20.3992 100.839C20.4926 100.764 20.5591 100.661 20.589 100.545L21.014 98.604L21.439 96.663C21.488 96.434 21.338 96.246 21.103 96.246V96.246ZM19.757 102.29H15.08C14.9602 102.295 14.845 102.338 14.7513 102.413C14.6576 102.487 14.5902 102.59 14.559 102.706L13.902 105.616L13.246 108.525L13.063 109.359L12.432 112.329L11.802 115.3C11.753 115.529 11.652 115.899 11.577 116.121C11.577 116.121 10.703 118.721 9.234 118.691L9.05 118.687L7.779 118.664H7.778C7.6586 118.667 7.54326 118.708 7.44894 118.781C7.35462 118.854 7.28629 118.956 7.254 119.071L6.769 121.11L6.285 123.148C6.23 123.376 6.378 123.564 6.611 123.568C7.444 123.578 9.31 123.599 10.439 123.599C14.108 123.599 16.043 121.566 17.282 115.716L18.733 109.002L20.094 102.705C20.143 102.478 19.991 102.29 19.757 102.29V102.29ZM105.874 100.716L105.68 99.915L105.489 99.095L105.392 98.681C105.012 97.204 103.897 96.353 101.475 96.353L97.705 96.349L94.233 96.344H90.326C90.2066 96.3484 90.0918 96.3914 89.999 96.4666C89.9061 96.5418 89.8401 96.6451 89.811 96.761L89.638 97.577L89.434 98.541L89.377 98.812L87.618 107.052L85.948 114.874C85.898 115.104 85.882 115.386 85.91 115.5C85.938 115.615 86.389 115.709 86.623 115.709H90.147C90.382 115.709 90.679 115.667 90.807 115.615C90.935 115.563 91.124 115.102 91.171 114.873L91.797 111.774L92.424 108.674L92.425 108.669L92.509 108.256L93.269 104.696L93.94 101.552C93.9696 101.436 94.0357 101.333 94.1284 101.258C94.2212 101.183 94.3357 101.14 94.455 101.135L105.544 101.13C105.779 101.132 105.927 100.945 105.874 100.716V100.716ZM120.149 93.476L119.295 93.479H115.746C115.616 93.4863 115.489 93.5217 115.374 93.5826C115.259 93.6435 115.158 93.7286 115.079 93.832L107.23 105.33C107.098 105.524 106.947 105.496 106.895 105.268L106.317 102.735C106.286 102.619 106.218 102.516 106.124 102.441C106.031 102.366 105.915 102.323 105.795 102.319H100.75C100.515 102.319 100.376 102.503 100.44 102.728L102.701 110.649C102.765 110.875 102.77 111.245 102.712 111.473L101.727 115.306C101.668 115.534 101.812 115.719 102.047 115.719H107.034C107.155 115.714 107.271 115.672 107.366 115.598C107.461 115.524 107.531 115.422 107.566 115.306L108.552 111.473C108.63 111.203 108.753 110.948 108.915 110.718L121.657 93.807C121.799 93.619 121.722 93.466 121.488 93.468L120.149 93.476V93.476ZM80.063 103.395V103.391C80.0457 103.512 79.986 103.622 79.8946 103.703C79.8032 103.784 79.686 103.83 79.564 103.832H73.167C72.945 103.832 72.833 103.682 72.866 103.496L72.872 103.481L72.868 103.483L72.871 103.462L72.9 103.353C73.511 101.729 74.755 100.663 77.094 100.663C79.728 100.662 80.242 101.948 80.063 103.395V103.395ZM78.186 96.011C69.975 96.011 68.029 100.995 66.937 106.026C65.846 111.154 65.939 115.947 74.437 115.947H75.467L75.723 115.946H75.783L76.803 115.943H76.821C79.065 115.934 81.316 115.917 82.227 115.91C82.3457 115.904 82.4593 115.86 82.551 115.784C82.6427 115.709 82.7076 115.605 82.736 115.49L83.08 113.809L83.147 113.482L83.557 111.476C83.5701 111.425 83.571 111.372 83.5597 111.321C83.5485 111.269 83.5253 111.222 83.4921 111.181C83.4589 111.14 83.4167 111.108 83.3687 111.087C83.3207 111.065 83.2684 111.055 83.216 111.058H75.577C72.538 111.058 71.636 110.251 71.969 107.877H84.18L84.179 107.878L84.187 107.877C84.2836 107.873 84.377 107.841 84.4559 107.785C84.5348 107.729 84.596 107.652 84.632 107.562L84.661 107.456L84.66 107.457C86.473 100.618 85.953 96.012 78.186 96.011V96.011ZM39.376 103.369L39.26 103.778V103.779L38.338 107.047L37.416 110.314C37.3783 110.43 37.3061 110.531 37.209 110.605C37.1119 110.678 36.9947 110.72 36.873 110.725H31.993C28.291 110.725 27.389 107.829 28.291 103.559C29.192 99.191 30.959 96.476 34.603 96.201C39.583 95.825 40.579 99.327 39.376 103.369V103.369ZM42.724 110.474C42.724 110.474 45.025 104.886 45.547 101.66C46.26 97.341 44.097 91.075 35.743 91.075C27.437 91.075 23.829 97.056 22.453 103.559C21.077 110.109 22.88 115.852 31.139 115.805L37.655 115.781L43.744 115.759C43.8647 115.753 43.9806 115.71 44.0761 115.636C44.1716 115.562 44.2421 115.46 44.278 115.345L45.339 111.299C45.398 111.071 45.255 110.885 45.02 110.883L44.003 110.877L42.986 110.871C42.787 110.87 42.673 110.74 42.697 110.569L42.724 110.474V110.474ZM83.844 106.733C83.8441 106.77 83.8369 106.806 83.8229 106.84C83.8089 106.874 83.7883 106.905 83.7623 106.931C83.7364 106.957 83.7056 106.978 83.6716 106.992C83.6377 107.006 83.6013 107.013 83.5645 107.014C83.5277 107.014 83.4913 107.006 83.4573 106.992C83.4233 106.978 83.3924 106.958 83.3664 106.932C83.3403 106.906 83.3196 106.875 83.3055 106.841C83.2914 106.807 83.2841 106.771 83.284 106.734C83.2839 106.66 83.3132 106.588 83.3657 106.536C83.4181 106.483 83.4892 106.454 83.5635 106.454C83.6378 106.453 83.709 106.483 83.7616 106.535C83.8142 106.588 83.8439 106.659 83.844 106.733Z" fill="#0868AC"/>
</svg>
