<svg width="24" height="24" viewBox="0 0 24 24" fill="none" xmlns="http://www.w3.org/2000/svg">
<rect width="24" height="24" rx="12" fill="#A27B5C"/>
<path d="M12.1996 16.5498C9.80416 16.5498 8.70973 15.3295 8.70973 14.4345C8.7094 14.221 8.79703 14.0168 8.952 13.8699C9.10697 13.723 9.31558 13.6464 9.52877 13.6582C10.5544 13.6582 10.2861 15.1966 12.1996 15.1966C13.1777 15.1966 13.7522 14.6078 13.7522 14.0546C13.7522 13.7223 13.5623 13.3424 12.9165 13.1905L10.7799 12.6516C9.06346 12.2147 8.76433 11.2604 8.76433 10.3749C8.76433 8.53735 10.4452 7.87261 12.0453 7.87261C13.5196 7.87261 15.2716 8.68691 15.2716 9.78847C15.2716 10.2633 14.8751 10.5173 14.4146 10.5173C13.5385 10.5173 13.6857 9.28755 11.9242 9.28755C11.0482 9.28755 10.5876 9.69826 10.5876 10.2728C10.5876 10.8473 11.269 11.042 11.8672 11.1725L13.4436 11.5286C15.1719 11.918 15.6325 12.9317 15.6325 13.9027C15.6325 15.396 14.4763 16.5498 12.1972 16.5498H12.1996ZM18.8137 13.3899C18.8821 12.9979 18.9163 12.6008 18.9158 12.2029C18.9242 10.2042 18.0459 8.30466 16.5179 7.01631C14.9898 5.72795 12.9692 5.1834 11.0007 5.52942C10.3956 5.18106 9.7094 4.99845 9.01123 5.00001C7.57816 5.00876 6.25721 5.77682 5.54068 7.01793C4.82415 8.25904 4.81951 9.78704 5.5285 11.0325C5.13289 13.2062 5.82588 15.436 7.38395 17.0026C8.94201 18.5692 11.168 19.2743 13.3439 18.8906C13.9482 19.2386 14.6336 19.4212 15.331 19.42C16.7633 19.4108 18.0834 18.643 18.7998 17.4027C19.5162 16.1623 19.5215 14.6352 18.8137 13.3899Z" fill="#DCD7C9"/>
</svg>
